<?xml version="1.0" encoding="UTF-8" standalone="no"?>
<!-- Created with Inkscape (http://www.inkscape.org/) -->

<svg
   version="1.1"
   id="svg1"
   width="491.55469"
   height="491.42642"
   viewBox="0 0 491.55469 491.42643"
   xmlns="http://www.w3.org/2000/svg"
   xmlns:svg="http://www.w3.org/2000/svg">
  <defs
     id="defs1" />
  <g
     id="g1"
     transform="translate(-847.83557,-118.0942)">
    <g
       id="g2"
       transform="translate(765.77996,36.036701)">
      <path
         style="fill:#cdd6da"
         d="M 122.74236,571.58468 C 107.51391,567.38509 93.799482,555.56747 86.657856,540.4909 l -4.097858,-8.65091 -0.394524,-199.68 C 81.869752,182.48645 82.14849,130.71695 83.278498,125.44 87.676459,104.90224 104.9919,87.57852 125.44,83.258332 c 5.22215,-1.103314 58.60078,-1.385509 206.71999,-1.092858 l 199.68,0.394524 8.65091,4.097858 c 15.37996,7.285341 26.97115,20.924774 31.16358,36.670384 2.60772,9.79386 2.60772,398.90964 0,408.70351 -5.11067,19.19428 -20.47508,34.50225 -39.81449,39.66826 -9.17778,2.4516 -400.18919,2.34136 -409.09763,-0.11533 z m 273.77013,-113.66469 0.35251,-20.16 h 26.84749 26.8475 v -20.48 -20.48 h 27.52 27.52 V 286.71999 176.64 H 327.67999 149.76 v 110.07999 110.08 h 27.52 27.52 v 20.48 20.48 h 26.87999 26.88 v 19.62667 c 0,10.79466 0.389,20.01566 0.86444,20.4911 0.47544,0.47544 31.43544,0.71544 68.8,0.53333 l 67.93556,-0.3311 z"
         id="path8" />
      <path
         style="fill:#fcd734"
         d="M 192,252.15999 V 204.8 h 12.8 12.8 v 47.35999 47.36 H 204.8 192 Z m 40.95999,0 V 204.8 h 12.8 12.8 v 47.35999 47.36 h -12.8 -12.8 z m 40.96,0 V 204.8 h 12.8 12.8 v 47.35999 47.36 h -12.8 -12.8 z m 40.96,0 V 204.8 h 12.8 12.8 v 47.35999 47.36 h -12.8 -12.8 z m 40.96,0 V 204.8 h 12.8 12.8 v 47.35999 47.36 h -12.8 -12.8 z m 40.96,0 V 204.8 h 12.8 12.8 v 47.35999 47.36 h -12.8 -12.8 z m 40.96,0 V 204.8 h 12.8 12.8 v 47.35999 47.36 h -12.8 -12.8 z"
         id="path7" />
      <path
         style="fill:#9facb2"
         d="m 259.42443,477.87776 c -0.47544,-0.47544 -0.86444,-9.68498 -0.86444,-20.46565 V 437.8109 l -26.88081,-0.38457 -26.88082,-0.38457 27.20082,0.0391 27.20081,0.0391 0.35251,20.16 0.3525,20.16 h 67.77499 67.775 l 0.3525,-20.16 0.3525,-20.16 26.88,-0.0382 26.88,-0.0382 -26.52763,0.38354 -26.52762,0.38354 -0.35237,20.13464 -0.35238,20.13464 -67.93556,0.3311 c -37.36456,0.18211 -68.32456,-0.0579 -68.8,-0.53333 z m -96.61538,-82.0322 c 7.52899,-0.22591 20.20099,-0.2267 28.16,-0.002 7.95902,0.22494 1.79895,0.40977 -13.68905,0.41074 -15.488,9.6e-4 -21.99993,-0.18308 -14.47095,-0.40898 z m 300.8,0 c 7.52898,-0.22591 20.20098,-0.2267 28.16,-0.002 7.95901,0.22494 1.79894,0.40977 -13.68906,0.41074 -15.488,9.6e-4 -21.99992,-0.18308 -14.47094,-0.40898 z M 238.39999,176.96014 c 49.104,-0.18565 129.456,-0.18565 178.56,0 49.104,0.18565 8.928,0.33754 -89.28,0.33754 -98.208,0 -138.38399,-0.15189 -89.28,-0.33754 z"
         id="path6" />
      <path
         style="fill:#c0ae44"
         d="m 191.29998,252.15999 c 0,-26.4 0.17022,-37.19999 0.37825,-24 0.20804,13.2 0.20804,34.8 0,48 -0.20803,13.2 -0.37825,2.4 -0.37825,-24 z m 40.96,0 c 0,-26.4 0.17022,-37.19999 0.37825,-24 0.20804,13.2 0.20804,34.8 0,48 -0.20803,13.2 -0.37825,2.4 -0.37825,-24 z m 40.96,0 c 0,-26.4 0.17021,-37.19999 0.37825,-24 0.20804,13.2 0.20804,34.8 0,48 -0.20804,13.2 -0.37825,2.4 -0.37825,-24 z m 40.96,0 c 0,-26.4 0.17021,-37.19999 0.37825,-24 0.20804,13.2 0.20804,34.8 0,48 -0.20804,13.2 -0.37825,2.4 -0.37825,-24 z m 40.96,0 c 0,-26.4 0.17021,-37.19999 0.37825,-24 0.20804,13.2 0.20804,34.8 0,48 -0.20804,13.2 -0.37825,2.4 -0.37825,-24 z m 40.96,0 c 0,-26.4 0.17021,-37.19999 0.37825,-24 0.20804,13.2 0.20804,34.8 0,48 -0.20804,13.2 -0.37825,2.4 -0.37825,-24 z m 40.96,0 c 0,-26.4 0.17021,-37.19999 0.37825,-24 0.20804,13.2 0.20804,34.8 0,48 -0.20804,13.2 -0.37825,2.4 -0.37825,-24 z"
         id="path5" />
      <path
         style="fill:#bdab44"
         d="m 203.82446,299.845 13.74446,-0.4113 0.3516,-47.63685 0.35159,-47.63685 0.30394,48.31999 0.30395,48.32 -14.4,-0.27185 -14.4,-0.27184 z m 40.96,0 13.74446,-0.4113 0.3516,-47.63685 0.35159,-47.63685 0.30394,48.31999 0.30394,48.32 -14.4,-0.27185 -14.4,-0.27184 z m 40.96,0 13.74446,-0.4113 0.3516,-47.63685 0.35159,-47.63685 0.30394,48.31999 0.30394,48.32 -14.4,-0.27185 -14.4,-0.27184 z m 40.96,0 13.74446,-0.4113 0.3516,-47.63685 0.35159,-47.63685 0.30394,48.31999 0.30394,48.32 -14.4,-0.27185 -14.4,-0.27184 z m 40.96,0 13.74446,-0.4113 0.35159,-47.63685 0.3516,-47.63685 0.30394,48.31999 0.30394,48.32 -14.4,-0.27185 -14.4,-0.27184 z m 40.95999,0 13.74447,-0.4113 0.35159,-47.63685 0.3516,-47.63685 0.30394,48.31999 0.30394,48.32 -14.4,-0.27185 -14.4,-0.27184 z m 40.96,0 13.74447,-0.4113 0.35159,-47.63685 0.3516,-47.63685 0.30394,48.31999 0.30394,48.32 -14.4,-0.27185 -14.4,-0.27184 z"
         id="path4" />
      <path
         style="fill:#72838b"
         d="m 150.37178,286.71999 c 0,-60.192 0.15653,-84.81599 0.34785,-54.72 0.19132,30.096 0.19132,79.344 0,109.44 -0.19132,30.096 -0.34785,5.472 -0.34785,-54.72 z m 354.55999,0 c 0,-60.192 0.15653,-84.81599 0.34785,-54.72 0.19132,30.096 0.19132,79.344 0,109.44 -0.19132,30.096 -0.34785,5.472 -0.34785,-54.72 z"
         id="path3" />
      <path
         style="fill:#445963"
         d="m 259.83999,456.95999 v -20.48 h -27.52 H 204.8 v -20.48 -20.48 h -26.88 -26.88 v -108.8 V 177.92 h 176.63999 176.64 v 108.79999 108.8 h -26.88 -26.88 v 20.48 20.48 h -27.52 -27.52 v 20.48 20.48 h -67.84 -67.84 z M 218.88,252.79999 V 204.8 H 204.8 190.72 v 47.99999 48 h 14.08 14.08 z m 40.95999,0 V 204.8 h -14.08 -14.08 v 47.99999 48 h 14.08 14.08 z m 40.96,0 V 204.8 h -14.08 -14.08 v 47.99999 48 h 14.08 14.08 z m 40.96,0 V 204.8 h -14.08 -14.08 v 47.99999 48 h 14.08 14.08 z m 40.96,0 V 204.8 h -14.08 -14.08 v 47.99999 48 h 14.08 14.08 z m 40.96,0 V 204.8 h -14.08 -14.08 v 47.99999 48 h 14.08 14.08 z m 40.96,0 V 204.8 h -14.08 -14.08 v 47.99999 48 h 14.08 14.08 z"
         id="path2" />
    </g>
  </g>
</svg>
