<?xml version="1.0" encoding="UTF-8" standalone="no"?>
<!-- Created with Inkscape (http://www.inkscape.org/) -->

<svg
   version="1.1"
   id="svg1"
   width="1200.0042"
   height="1198"
   viewBox="0 0 1200.0042 1198"
   sodipodi:docname="icon.png"
   xmlns:inkscape="http://www.inkscape.org/namespaces/inkscape"
   xmlns:sodipodi="http://sodipodi.sourceforge.net/DTD/sodipodi-0.dtd"
   xmlns="http://www.w3.org/2000/svg"
   xmlns:svg="http://www.w3.org/2000/svg">
  <defs
     id="defs1" />
  <sodipodi:namedview
     id="namedview1"
     pagecolor="#ffffff"
     bordercolor="#000000"
     borderopacity="0.25"
     inkscape:showpageshadow="2"
     inkscape:pageopacity="0.0"
     inkscape:pagecheckerboard="0"
     inkscape:deskcolor="#d1d1d1"
     showgrid="false" />
  <g
     inkscape:groupmode="layer"
     inkscape:label="Image"
     id="g1"
     transform="translate(-1787.6343,-67.363297)">
    <g
       id="g14"
       transform="translate(113.54068,247.46051)">
      <path
         style="fill:#f9d7a9"
         d="m 2536.0936,986.52523 c 0,-0.20765 0.7875,-0.99515 1.75,-1.75 1.5861,-1.24387 1.6215,-1.2085 0.3776,0.37756 -1.3064,1.66574 -2.1276,2.19548 -2.1276,1.37244 z m -822.0538,-5.37244 -3.4462,-3.75 3.75,3.44616 c 3.4904,3.20762 4.2098,4.05384 3.4462,4.05384 -0.1671,0 -1.8546,-1.6875 -3.75,-3.75 z m -7.0219,-7 -2.4243,-2.75 2.75,2.42431 c 1.5125,1.33337 2.75,2.57087 2.75,2.75 0,0.78427 -0.8098,0.14598 -3.0757,-2.42431 z m 844.0757,-2.62756 c 0,-0.20765 0.7875,-0.99515 1.75,-1.75 1.5861,-1.24387 1.6215,-1.2085 0.3776,0.37756 -1.3064,1.66574 -2.1276,2.19548 -2.1276,1.37244 z M 2024.7638,836.15285 c 56.7437,-0.14266 149.8937,-0.14267 207,-2e-5 57.1064,0.14265 10.6798,0.25937 -103.1702,0.25938 -113.85,1e-5 -160.5734,-0.1167 -103.8298,-0.25936 z m -146.6702,-23.75006 c -2.429,-2.475 -4.1914,-4.5 -3.9164,-4.5 0.275,0 2.4874,2.025 4.9164,4.5 2.4291,2.475 4.1914,4.5 3.9164,4.5 -0.275,0 -2.4873,-2.025 -4.9164,-4.5 z m 523.4218,-59.5 c 0,-11.275 0.1459,-15.8875 0.3241,-10.25 0.1783,5.6375 0.1783,14.8625 0,20.5 -0.1782,5.6375 -0.3241,1.025 -0.3241,-10.25 z m 0.059,-301.5 c 0,-53.9 0.1211,-75.80329 0.2692,-48.67397 0.148,27.12932 0.1479,71.22932 -1e-4,98 -0.1481,26.77068 -0.2692,4.57397 -0.2691,-49.32603 z m 41.6953,96.75043 c 20.7217,-0.15089 54.9217,-0.15095 76,-1.5e-4 21.0782,0.15081 4.124,0.27426 -37.676,0.27435 -41.8,8e-5 -59.0458,-0.12331 -38.324,-0.2742 z m -66.2517,-235.00043 -2.4243,-2.75 2.75,2.42431 c 1.5125,1.33337 2.75,2.57087 2.75,2.75 0,0.78427 -0.8098,0.14598 -3.0757,-2.42431 z m 165.5444,-166.5 -5.9687,-6.25 6.25,5.96869 c 5.8057,5.54441 6.7076,6.53131 5.9687,6.53131 -0.1547,0 -2.9672,-2.8125 -6.25,-6.25 z m -829.9687,0.25 c 0.9955,-1.1 2.035,-2 2.31,-2 0.275,0 -0.3145,0.9 -1.31,2 -0.9955,1.1 -2.0349,2 -2.3099,2 -0.275,0 0.3144,-0.9 1.3099,-2 z m 9.5,-8.37756 c 0,-0.20765 0.7875,-0.99515 1.75,-1.75 1.5861,-1.24387 1.6215,-1.2085 0.3776,0.37756 -1.3064,1.66574 -2.1276,2.19548 -2.1276,1.37244 z"
         id="path20" />
      <path
         style="fill:#73c5e6"
         d="m 2153.9226,732.15285 c 45.8309,-0.14387 120.5309,-0.14386 166,3e-5 45.4691,0.14389 7.971,0.26161 -83.329,0.26159 -91.3,-2e-5 -128.5019,-0.11775 -82.671,-0.26162 z m 476.921,1.8e-4 c 25.4375,-0.14862 67.0625,-0.14862 92.5,0 25.4375,0.14862 4.625,0.27022 -46.25,0.27022 -50.875,0 -71.6875,-0.1216 -46.25,-0.27022 z m -619.345,-33.50024 -1.905,-2.25 2.25,1.90498 c 2.1145,1.79022 2.7053,2.59502 1.905,2.59502 -0.1897,0 -1.2022,-1.0125 -2.25,-2.25 z m 816.095,0.25 c 0.9955,-1.1 2.035,-2 2.31,-2 0.275,0 -0.3145,0.9 -1.31,2 -0.9955,1.1 -2.0349,2 -2.3099,2 -0.275,0 0.3144,-0.9 1.3099,-2 z m -832.6275,-16.75 c -1.2439,-1.58606 -1.2085,-1.62143 0.3775,-0.37756 0.9625,0.75485 1.75,1.54235 1.75,1.75 0,0.82304 -0.8212,0.2933 -2.1275,-1.37244 z m 848.1275,1.37244 c 0,-0.20765 0.7875,-0.99515 1.75,-1.75 1.5861,-1.24387 1.6215,-1.2085 0.3776,0.37756 -1.3064,1.66574 -2.1276,2.19548 -2.1276,1.37244 z M 1963.5788,493.40279 c 10e-5,-71.5 0.1192,-100.60251 0.2647,-64.67223 0.1456,35.93027 0.1456,94.43027 0,130 -0.1456,35.56972 -0.2647,6.17223 -0.2647,-65.32777 z m 209.9198,35.25 -1.905,-2.25 2.25,1.90498 c 2.1145,1.79022 2.7053,2.59502 1.905,2.59502 -0.1897,0 -1.2022,-1.0125 -2.25,-2.25 z m 496.095,-3.75 c 2.7087,-2.75 5.1498,-5 5.4248,-5 0.275,0 -1.7161,2.25 -4.4248,5 -2.7086,2.75 -5.1498,5 -5.4248,5 -0.275,0 1.7162,-2.25 4.4248,-5 z m -505.095,-5.25 -1.905,-2.25 2.25,1.90498 c 2.1145,1.79022 2.7053,2.59502 1.905,2.59502 -0.1897,0 -1.2022,-1.0125 -2.25,-2.25 z m -17.9242,-132.25 c 1e-4,-54.45 0.1211,-76.57826 0.2691,-49.1739 0.1479,27.40436 0.1478,71.95436 -10e-5,99 -0.148,27.04564 -0.269,4.6239 -0.269,-49.8261 z m 547.0099,-111.5 c 0,-115.225 0.1167,-162.3625 0.2593,-104.75 0.1426,57.6125 0.1426,151.8875 0,209.5 -0.1426,57.6125 -0.2593,10.475 -0.2593,-104.75 z m -730.4117,14.41666 c 0.048,-1.16494 0.2849,-1.4019 0.6041,-0.60416 0.2889,0.72187 0.2534,1.58437 -0.079,1.91666 -0.3323,0.33229 -0.5686,-0.25833 -0.5252,-1.3125 z m 0.3996,-271.916664 c -10e-5,-48.4 0.1219,-68.346363 0.2711,-44.325251 0.1492,24.0211117 0.1492,63.621112 10e-5,88 -0.1491,24.378888 -0.2712,4.725251 -0.2712,-43.674749 z m 182.9416,68 c -9e-4,-11 0.1452,-15.636437 0.3247,-10.303194 0.1794,5.333244 0.1802,14.333244 0,20 -0.1786,5.666758 -0.3254,1.303194 -0.3263,-9.696806 z m 19.5798,-56 c 1.2918,-1.375 2.5737,-2.5 2.8487,-2.5 0.275,0 -0.5569,1.125 -1.8487,2.5 -1.2917,1.375 -2.5736,2.5 -2.8486,2.5 -0.275,0 0.5569,-1.125 1.8486,-2.5 z m 501.9659,-5.25 -5.4659,-5.75 5.75,5.46584 c 3.1625,3.006212 5.75,5.593712 5.75,5.75 0,0.742254 -0.9562,-0.123907 -6.0341,-5.46584 z m -492.4659,-4.25 c 0.9955,-1.1 2.035,-2 2.31,-2 0.275,0 -0.3145,0.9 -1.31,2 -0.9955,1.1 -2.0349,2 -2.3099,2 -0.275,0 0.3144,-0.9 1.3099,-2 z m 140.25,-19.7499494 c 57.3375,-0.1426189 151.1625,-0.1426189 208.5,0 57.3375,0.1426189 10.425,0.2593071 -104.25,0.2593071 -114.675,0 -161.5875,-0.1166882 -104.25,-0.2593071 z M 2843.9661,-129.84721 c -1.2439,-1.58606 -1.2085,-1.62143 0.3775,-0.37756 0.9625,0.75485 1.75,1.54235 1.75,1.75 0,0.82304 -0.8212,0.2933 -2.1275,-1.37244 z m -839.3725,-10.25 c 3.8205,-3.85 7.1714,-7 7.4464,-7 0.275,0 -2.6259,3.15 -6.4464,7 -3.8205,3.85 -7.1713,7 -7.4463,7 -0.275,0 2.6258,-3.15 6.4463,-7 z m 829.4711,-0.75 -6.4711,-6.75 6.75,6.47111 c 3.7125,3.55911 6.75,6.59661 6.75,6.75 0,0.73602 -1.0182,-0.20143 -7.0289,-6.47111 z m -818.9711,-8.62756 c 0,-0.20765 0.7875,-0.99515 1.75,-1.75 1.5861,-1.24387 1.6215,-1.2085 0.3776,0.37756 -1.3064,1.66574 -2.1276,2.19548 -2.1276,1.37244 z m 807.8725,-1.37244 c -1.2439,-1.58606 -1.2085,-1.62143 0.3775,-0.37756 1.6658,1.30637 2.1955,2.12756 1.3725,2.12756 -0.2077,0 -0.9952,-0.7875 -1.75,-1.75 z"
         id="path19" />
      <path
         style="fill:#f5b45c"
         d="m 1719.9661,986.15279 c -1.2439,-1.58606 -1.2085,-1.62143 0.3775,-0.37756 1.6658,1.30637 2.1955,2.12756 1.3725,2.12756 -0.2077,0 -0.9952,-0.7875 -1.75,-1.75 z m 824.6275,-8.25 c 3.2656,-3.3 6.1624,-6 6.4374,-6 0.275,0 -2.1718,2.7 -5.4374,6 -3.2655,3.3 -6.1624,6 -6.4374,6 -0.275,0 2.1719,-2.7 5.4374,-6 z m 39.9651,-119.5 c 10e-5,-28.6 0.1281,-40.15594 0.2843,-25.67987 0.1563,14.47607 0.1561,37.87607 -3e-4,52 -0.1564,14.12393 -0.2842,2.27987 -0.284,-26.32013 z m -206.5069,-45.75 c 2.4521,-2.6125 4.5896,-4.75 4.75,-4.75 0.7509,0 -0.043,0.89782 -4.4582,5.04179 l -4.75,4.45821 z m -506.0857,-6.5 c -1.2439,-1.58606 -1.2085,-1.62143 0.3775,-0.37756 0.9625,0.75485 1.75,1.54235 1.75,1.75 0,0.82304 -0.8212,0.2933 -2.1275,-1.37244 z m 712.6158,-423.25 c 0,-91.025 0.1177,-128.2625 0.2616,-82.75 0.1439,45.5125 0.1439,119.9875 0,165.5 -0.1439,45.5125 -0.2616,8.275 -0.2616,-82.75 z m -203.6158,-65.75 c -1.2439,-1.58606 -1.2085,-1.62143 0.3775,-0.37756 1.6658,1.30637 2.1955,2.12756 1.3725,2.12756 -0.2077,0 -0.9952,-0.7875 -1.75,-1.75 z m -8,-8 c -1.2439,-1.58606 -1.2085,-1.62143 0.3775,-0.37756 0.9625,0.75485 1.75,1.54235 1.75,1.75 0,0.82304 -0.8212,0.2933 -2.1275,-1.37244 z m -666.3725,-155.25 c 0.9955,-1.1 2.035,-2 2.31,-2 0.275,0 -0.3145,0.9 -1.31,2 -0.9955,1.1 -2.0349,2 -2.3099,2 -0.275,0 0.3144,-0.9 1.3099,-2 z m 12.5,-12.37756 c 0,-0.20765 0.7875,-0.99515 1.75,-1.75 1.5861,-1.24387 1.6215,-1.2085 0.3776,0.37756 -1.3064,1.66574 -2.1276,2.19548 -2.1276,1.37244 z m 813.8725,-3.37244 c -1.2439,-1.58606 -1.2085,-1.62143 0.3775,-0.37756 0.9625,0.75485 1.75,1.54235 1.75,1.75 0,0.82304 -0.8212,0.2933 -2.1275,-1.37244 z m -569.8725,-31.08334 c 0,-0.87834 -22.0564,-1.22709 -89.25,-1.41119 l -89.25,-0.24453 88.9446,-0.26091 c 84.2961,-0.24728 92.6635,-0.0247 90.2388,2.39997 -0.3759,0.37583 -0.6834,0.15833 -0.6834,-0.48334 z m 183.2572,-0.16666 c 0.3618,-1.3255 19.3625,-1.50053 163.3261,-1.50454 l 162.9167,-0.005 -162.4428,0.25757 c -128.3686,0.20353 -162.6282,0.51913 -163.3262,1.50454 -0.6521,0.92063 -0.7761,0.85442 -0.4738,-0.25302 z"
         id="path18" />
      <path
         style="fill:#f18a00"
         d="m 1767.8582,1013.4382 c -22.1585,-8.8981 -38.0488,-18.60529 -52.6281,-32.14978 -16.8153,-15.6217 -31.6846,-38.45632 -39.2606,-60.29218 -1.8207,-5.24749 -1.8759,-15.7572 -1.8759,-357.22397 V 211.95485 l 2.9885,-7.52313 c 18.6414,-46.9268 51.8531,-79.15772 98.3412,-95.43695 l 8.8297,-3.09198 h 89.4203 c 75.7657,0 89.4203,0.21271 89.4203,1.39301 0,1.80992 2.2934,2.66757 4.0907,1.52978 2.0442,-1.29405 173.5295,-1.19642 175.9522,0.10018 1.5175,0.8121 2.1719,0.60597 3.1749,-1 1.2597,-2.01717 1.7301,-2.02297 164.0664,-2.02297 h 162.8032 l 9.7063,3.62491 c 47.5926,17.77385 80.3755,50.90688 98.1452,99.19331 l 3.0611,8.31821 v 165.68179 165.68178 h -91 -91 v -97.31952 -97.31952 l -3.1432,-7.68048 c -10.1283,-24.74885 -27.8795,-43.10378 -51.5664,-53.32034 l -7.7904,-3.36014 -96.1372,-0.26465 c -94.947,-0.26137 -96.1436,-0.28923 -96.6564,-2.25 -0.5449,-2.08404 -3.1502,-2.69432 -4.2064,-0.98535 -0.4043,0.65425 -30.6574,1 -87.5,1 -56.8426,0 -87.0956,-0.34575 -87.5,-1 -1.0482,-1.69615 -3.6596,-1.10547 -4.197,0.94933 -0.4839,1.85042 -1.6843,1.96459 -23.6564,2.25 l -23.1466,0.30067 -9.8515,4.73466 c -12.8173,6.16003 -20.6023,11.80277 -29.727,21.5469 -8.1842,8.73967 -13.9072,17.71659 -18.7425,29.39892 l -3.179,7.68048 0.034,210.81952 0.034,210.81952 2.8771,7.29288 c 8.5407,21.64907 24.2246,38.35009 45.2105,48.1424 16.6032,7.7473 -4.522,7.1133 227.3816,6.82408 l 207.9619,-0.25936 8.785,-3.66827 c 24.1528,-10.08535 40.8545,-26.35562 50.8549,-49.54132 l 3.3601,-7.79041 0.3051,-21.25 0.3052,-21.25 h 6.2254 c 6.0373,0 8.6878,1.10669 87.6949,36.61616 44.8082,20.13889 82.9319,37.08939 84.7194,37.66778 l 3.25,1.05162 v 51.78471 51.78471 l -3.9815,10.29751 c -9.0946,23.52182 -18.662,38.45184 -35.4978,55.39448 -17.3977,17.50818 -34.0798,27.94094 -59.5932,37.26884 l -8.5724,3.1342 -348.9276,-0.077 -348.9275,-0.077 z m 816.6885,-243.53541 c 0,-20.625 0.133,-29.0625 0.2956,-18.75 0.1625,10.3125 0.1625,27.1875 0,37.5 -0.1626,10.3125 -0.2956,1.875 -0.2956,-18.75 z"
         id="path17" />
      <path
         style="fill:#0096d2"
         d="m 2069.8189,730.65279 c -0.2687,-0.6875 -4.2544,-2.57489 -8.857,-4.1942 -11.6292,-4.09149 -29.3083,-13.23396 -38.7845,-20.05688 -25.4362,-18.31422 -43.2328,-42.35734 -55.0242,-74.33743 l -3.0596,-8.29793 0.01,-128.68178 0.01,-128.68178 6.7423,-2.7783 c 3.7083,-1.52806 42.8719,-18.1483 87.0302,-36.93387 61.5557,-26.18662 80.217,-34.52098 79.9838,-35.72171 -0.274,-1.41081 -8.9056,-1.52639 -87.0379,-1.16543 l -86.7338,0.40069 v -2.09168 c 0,-2.37436 1.5448,-3.75537 2.4899,-2.22602 0.9544,1.54411 175.7311,1.39533 177.2773,-0.1509 0.8897,-0.88962 1.2934,-0.83017 1.6975,0.25 0.2917,0.77947 0.6439,46.41722 0.7828,101.41722 l 0.2525,100 3.6695,8.31854 c 5.3091,12.03549 9.4384,18.47907 17.1848,26.81625 10.0848,10.85383 22.9141,18.99592 38.5693,24.47779 5.2609,1.84218 11.6869,1.89909 214.2176,1.89692 l 208.7939,-0.002 6.5728,-2.47402 c 27.5588,-10.37309 46.0453,-28.48576 55.4917,-54.36952 l 3.0004,-8.22131 -0.017,-208.22121 -0.017,-208.221204 -3.2509,-8 C 2679.728,32.123528 2662.8773,15.272861 2635.5978,4.1875535 l -8,-3.25088326 -207.0934,-0.016822 c -201.5373,-0.0163707 -207.243,0.0346193 -212.6664,1.90053966 -26.8348,9.2325291 -47.3309,28.7525231 -58.3621,55.5826381 -2.8242,6.868971 -2.8838,7.407126 -3.1822,28.75 -0.254,18.164564 -0.5425,21.750004 -1.75,21.750004 -0.7952,0 -1.4459,-0.45 -1.4459,-1 0,-0.65909 -30,-1 -88,-1 -58,0 -88,0.34091 -88,1 0,0.55 -0.675,1 -1.5,1 -1.3221,0 -1.5,-10.615967 -1.5,-89.543672 V -70.18455 l 3.6264,-9.706332 c 17.3278,-46.380078 48.9274,-78.803918 94.1169,-96.571958 l 9.2434,-3.63437 349.2566,0.009 349.2567,0.009 10.7906,4.40829 c 42.717,17.45128 74.2882,49.59157 90.7777,92.414072 l 2.9317,7.613664 V 277.0043 629.65143 l -3.4448,8.54494 c -12.1828,30.21931 -31.1773,54.02484 -56.5552,70.87961 -8.4,5.57887 -26.1393,14.36868 -36,17.83789 -3.575,1.25777 -6.9996,2.89482 -7.6102,3.63789 -0.9178,1.11688 -17.0669,1.35103 -93.1805,1.35103 h -92.0702 l -0.3195,-2.25 -0.3196,-2.25 -21.25,0.0111 c -11.6875,0.006 -50.3171,0.11861 -85.8436,0.25 -63.6512,0.2354 -64.6012,0.26806 -65.1166,2.23889 -0.5205,1.99015 -1.364,2 -171.2994,2 -135.6938,0 -170.8768,-0.25679 -171.2651,-1.25 z m -106.2733,-402.75 c 0,-20.075 0.1335,-28.2875 0.2966,-18.25 0.1631,10.0375 0.1631,26.4625 0,36.5 -0.1631,10.0375 -0.2966,1.825 -0.2966,-18.25 z"
         id="path16" />
      <path
         style="fill:#c76c00"
         d="m 2497.0936,769.92923 c -46.8493,-21.02898 -84.6303,-38.54761 -84.7924,-39.31737 -0.2389,-1.13399 3.5926,-1.50937 20.9112,-2.04873 29.1425,-0.90758 150.691,-0.83545 151.0722,0.0897 0.17,0.4125 0.1767,18.4125 0.015,40 -0.2234,29.82222 -0.5837,39.24464 -1.5,39.22771 -0.6633,-0.0122 -39.231,-17.09032 -85.706,-37.95127 z M 1967.7481,107.65279 c 0.255,-0.4125 39.5604,-0.75 87.3455,-0.75 47.7851,0 87.0906,0.3375 87.3455,0.75 0.255,0.4125 -39.0505,0.75 -87.3455,0.75 -48.2949,0 -87.6004,-0.3375 -87.3455,-0.75 z"
         id="path15" />
      <path
         style="fill:#0076a8"
         d="m 2404.8615,732.17805 c 1.7974,-0.22256 4.4974,-0.21796 6,0.0102 1.5027,0.22817 0.032,0.41027 -3.2679,0.40466 -3.3,-0.006 -4.5294,-0.1923 -2.7321,-0.41487 z m 14.4384,-4.01582 c 3.6884,-0.19185 9.9884,-0.19313 14,-0.003 4.0115,0.19029 0.9937,0.34727 -6.7063,0.34883 -7.7,0.002 -10.9822,-0.15414 -7.2937,-0.346 z m 143.7937,-0.25944 -21.5,-0.56019 21.191,-0.21991 c 13.2912,-0.13793 21.4214,0.15289 21.809,0.7801 0.3399,0.55 0.479,0.90104 0.309,0.78009 -0.1699,-0.12095 -9.984,-0.47199 -21.809,-0.78009 z M 2402.9061,549.21967 c 0.7219,-0.28887 1.5844,-0.25334 1.9167,0.079 0.3323,0.33229 -0.2583,0.56864 -1.3125,0.52522 -1.1649,-0.048 -1.4019,-0.28494 -0.6042,-0.60417 z M 1964.0936,328.06041 v -37.84237 l 85.9999,-0.71674 c 47.2999,-0.3942 86.4499,-0.43858 87,-0.0986 0.5501,0.33997 1.0001,1.19507 1.0001,1.90022 0,0.73808 -17.079,8.54458 -40.25,18.39753 -22.1375,9.41349 -60.9121,25.90999 -86.1659,36.65889 -25.2538,10.7489 -46.2913,19.54346 -46.75,19.54346 -0.4587,0 -0.8341,-17.02907 -0.8341,-37.84238 z"
         id="path14" />
    </g>
  </g>
</svg>
